<svg xmlns="http://www.w3.org/2000/svg" viewBox="0 0 300 120" fill="none">
  <path d="M19 88c18-44 15-70 28-70 14 0-8 75 10 74 15-1 27-35 38-59 2-5 5 0 3 7-10 34-2 55 11 55 15 0 17-57 34-57 10 0 9 15 3 25 14-25 28-31 36-23 10 10-6 45 5 45 14 0 23-40 30-63 2-6 5-2 4 5-4 28-8 62 5 62 14 0 21-16 36-40" stroke="#11243A" stroke-width="4.4" stroke-linecap="round" stroke-linejoin="round"/>
  <path d="M156 30c9 0 16 7 16 16s-7 16-16 16" stroke="#11243A" stroke-width="4.4" stroke-linecap="round"/>
</svg>